<svg xmlns="http://www.w3.org/2000/svg" width="110.525" height="145.079" viewBox="0 0 110.525 145.079">
    <path fill="none" stroke="#94001b" stroke-width="5px" d="M57.815 77c10.488 0 15.35 7.954 16.37 19.256a77.646 77.646 0 0 1-.355 11.21c-1.177 15.163-2.531 33.795 7.561 33.795 8.546 0 12.925-16.381 15.462-35.058 2.442-18.487-.151-27.686 1.13-35.9 2.428-15.554 16-29.5 11.81-49.331-2.324-11-8.386-16.174-14.383-18.354C81.589-2.413 72.659 7.28 57.815 7.28S34.05-2.413 20.223 2.617C14.229 4.793 8.165 9.968 5.835 20.971 1.65 40.8 15.223 54.745 17.659 70.3c1.269 8.208-1.31 17.41 1.13 35.9 2.531 18.676 6.919 35.058 15.456 35.058 10.086 0 8.741-18.632 7.564-33.795a78.2 78.2 0 0 1-.358-11.213C42.468 84.95 47.4 77 57.815 77z" transform="translate(-2.552 1.323)"/>
</svg>
